<svg width="162" height="1387" viewBox="0 0 162 1387" fill="none" xmlns="http://www.w3.org/2000/svg">
<path d="M133.793 1386.95L133.793 1308.61H162L162 1386.95H133.793ZM117.784 1190.33L104.061 1194.52V1235.97L117.784 1240.15V1279.7L1.90588 1237.11L1.90588 1193L117.784 1150.4L117.784 1190.33ZM36.2118 1215.43L73.5671 1226.84V1204.02L36.2118 1215.43ZM117.784 1067.12L59.0824 1109.71H117.784V1144.7H1.90588L1.90588 1108.57L56.7953 1068.26H1.90588L1.90588 1033.27H117.784L117.784 1067.12ZM117.784 1014.64H1.90588L1.90588 963.295C1.90588 926.786 22.8706 899.785 59.8448 899.785C96.8189 899.785 117.784 926.786 117.784 962.915L117.784 1014.64ZM59.4636 935.153C43.8353 935.153 32.4 944.28 32.4 962.915L32.4 979.648H86.9083L86.9083 962.915C86.9083 945.801 74.3294 935.153 59.4636 935.153ZM117.784 754.892L52.2212 769.723L117.784 784.555L117.784 821.444L1.90588 854.53L1.90588 815.359L72.8047 800.528L1.90588 783.034L1.90588 756.793L72.8047 739.299L1.90588 724.468L1.90588 685.297L117.784 718.383L117.784 754.892ZM59.8448 684.156C24.3953 684.156 0 656.775 0 621.027C0 585.279 24.3953 557.897 59.8448 557.897C95.2942 557.897 119.689 585.279 119.689 621.027C119.689 656.775 95.2942 684.156 59.8448 684.156ZM59.8448 593.265C43.8353 593.265 30.8753 604.294 30.8753 621.027C30.8753 637.76 43.8353 648.788 59.8448 648.788C75.8542 648.788 88.8142 637.76 88.8142 621.027C88.8142 604.294 75.8542 593.265 59.8448 593.265ZM117.784 481.838L81.1907 497.81L81.1907 510.36H117.784V545.347H1.90588L1.90588 483.739C1.90588 456.738 19.8212 442.287 41.5482 442.287C61.3694 442.287 72.0424 454.076 76.6165 463.203L117.402 442.287L117.402 481.838H117.784ZM41.5482 477.654C35.4494 477.654 32.4 483.359 32.4 489.063L32.4 510.36H50.6965L50.6965 489.063C50.6965 483.359 47.647 477.654 41.5482 477.654ZM117.784 360.903L76.9977 386.763L85.7647 393.228H117.784L117.784 428.216H1.90588L1.90588 393.228H45.36L1.90588 362.804L1.90588 320.211L55.6518 363.565L117.784 317.929L117.784 360.903ZM23.633 239.207C24.0142 238.827 24.3953 238.827 24.3953 239.207L26.3012 241.489C26.6823 241.87 26.3012 242.25 26.3012 242.25C23.2517 244.532 22.1083 247.193 22.1083 250.616C22.1083 256.321 26.3012 260.504 32.0188 260.504C37.7364 260.504 42.3106 256.321 42.3106 250.616C42.3106 247.193 40.7859 244.151 37.7364 242.25C37.3553 241.87 37.3553 241.87 37.7364 241.489L39.6423 239.207C40.0235 238.827 40.0236 238.827 40.4047 239.207C44.2165 241.869 46.5036 246.433 46.5036 250.997C46.5036 259.363 40.4047 265.448 32.0188 265.448C23.6329 265.448 17.5341 258.983 17.5341 250.997C17.5341 246.053 19.8212 241.869 23.633 239.207ZM17.5341 220.953C17.5341 212.967 23.6329 206.502 32.0188 206.502C40.4047 206.502 46.5036 212.967 46.5036 220.953C46.5036 228.939 40.4047 235.404 32.0188 235.404C23.6329 235.404 17.5341 228.939 17.5341 220.953ZM32.0188 230.841C37.7364 230.841 41.9294 227.038 41.9294 220.953C41.9294 215.249 37.7364 211.065 32.0188 211.065C26.3012 211.065 21.7271 214.868 21.7271 220.953C21.7271 226.657 26.3012 230.841 32.0188 230.841ZM17.9153 200.037C17.9153 199.656 17.9154 199.276 18.2965 199.276L40.4047 192.811V192.431L18.2965 186.346C17.9154 186.346 17.9153 185.966 17.9153 185.585V182.163C17.9153 181.782 17.9154 181.402 18.2965 181.402L40.4047 174.937V174.557L18.2965 168.092C17.9154 168.092 17.9153 167.711 17.9153 167.331V163.528C17.9153 163.148 18.2964 162.767 18.6776 163.148L45.36 171.895C45.7412 171.895 46.1224 172.275 46.1224 172.655L46.1224 176.839C46.1224 177.219 45.7412 177.599 45.36 177.599L25.5389 183.304V183.684L45.36 189.388C45.7412 189.388 46.1224 189.769 46.1224 190.149V194.332C46.1224 194.712 45.7412 195.093 45.36 195.093L18.2965 203.84C17.9154 203.84 17.9153 203.84 17.9153 203.459L17.9153 200.037ZM17.5341 145.654C17.5341 137.668 23.6329 131.203 32.0188 131.203C40.4047 131.203 46.5036 137.668 46.5036 145.654C46.5036 153.64 40.4047 160.105 32.0188 160.105C23.6329 160.105 17.5341 154.021 17.5341 145.654ZM32.0188 155.542C37.7364 155.542 41.9294 151.739 41.9294 145.654C41.9294 139.95 37.7364 135.766 32.0188 135.766C26.3012 135.766 21.7271 139.569 21.7271 145.654C21.7271 151.739 26.3012 155.542 32.0188 155.542ZM17.9153 122.836C17.9153 122.456 18.2964 122.075 18.6776 122.075L20.9647 121.695V121.315C18.6776 119.033 17.5341 116.371 17.5341 112.948C17.5341 107.624 20.9648 103.441 25.9201 101.92C26.3012 101.92 26.3012 101.92 26.6824 102.3L27.826 105.723C27.826 106.103 27.8259 106.103 27.4448 106.483C24.3953 107.624 22.1083 109.526 22.1083 113.329C22.1083 116.751 23.6329 119.413 26.3012 121.315H45.36C45.7412 121.315 46.1224 121.695 46.1224 122.075V125.498C46.1224 125.879 45.7412 126.259 45.36 126.259H18.6776C18.2964 126.259 17.9153 125.879 17.9153 125.498V122.836ZM9.14821 94.3137C9.14821 93.9335 9.52944 93.5531 9.91061 93.5531H30.8753L18.2965 80.2427C17.9154 79.8624 17.9153 79.4822 17.9153 78.7217V74.158C17.9153 73.7777 18.2964 73.3972 18.6776 73.7776L30.1129 86.3276L44.9789 73.3973C45.3601 73.0171 45.7412 73.3972 45.7412 73.7776V77.9609C45.7412 78.7216 45.3601 79.1017 44.9789 79.4821L32.7812 89.7501L35.8306 93.5531H44.9789C45.3601 93.5531 45.7412 93.9335 45.7412 94.3137V97.7366C45.7412 98.1168 45.3601 98.4969 44.9789 98.4969H9.91061C9.52944 98.4969 9.14821 98.1168 9.14821 97.7366L9.14821 94.3137ZM10.673 69.9746C8.76713 69.9746 6.86125 68.4534 6.86125 66.1716C6.86125 64.2701 8.38595 62.3687 10.673 62.3687C12.9601 62.3687 14.4848 64.2701 14.4848 66.1716C14.4848 68.4534 12.9601 69.9746 10.673 69.9746ZM17.9153 65.0308C17.9153 64.6505 18.2964 64.2701 18.6776 64.2701H45.36C45.7412 64.2701 46.1224 64.6505 46.1224 65.0308L46.1224 68.4535C46.1224 68.8339 45.7412 69.2141 45.36 69.2141H18.6776C18.2964 69.2141 17.9153 68.8339 17.9153 68.4535V65.0308ZM18.6776 57.8052C18.2964 57.8052 17.9153 57.4249 17.9153 57.0446V54.3824C17.9153 54.0022 18.2964 53.6218 18.6776 53.6218L20.9647 53.2416V52.8612C18.6776 50.5793 17.5341 47.5372 17.5341 44.4948C17.5341 37.2692 21.727 32.3252 30.1129 32.3252H45.36C45.7412 32.3252 46.1224 32.7056 46.1224 33.0858V36.5084C46.1224 36.8887 45.7412 37.269 45.36 37.269H30.4941C25.1576 37.269 22.1083 39.9312 22.1083 44.875C22.1083 48.678 23.6329 50.9598 26.3012 53.2416H45.36C45.7412 53.2416 46.1224 53.6219 46.1224 54.0022V57.4248C46.1224 57.8051 45.7412 58.1854 45.36 58.1854H18.6776V57.8052ZM17.9153 0.760498C17.9153 0.380249 18.2964 -0.00012207 18.6776 -0.00012207H41.9294C50.6965 -0.00012207 56.7953 4.9436 56.7953 13.6906C56.7953 18.6344 55.2706 23.1979 51.84 26.2402C51.4588 26.6206 51.0777 26.6206 50.6965 26.2402L48.4095 23.9586C48.0283 23.5782 48.0283 23.198 48.4095 22.8177C51.0777 20.536 52.2212 17.1132 52.2212 13.6906C52.2212 7.98596 48.7907 4.56335 43.073 4.18298V4.94373C45.3601 7.22546 46.5036 10.2678 46.5036 13.6906C46.5036 21.6768 40.7859 27.7616 32.0188 27.7616C23.2517 27.7616 17.5341 21.6768 17.5341 13.6906C17.5341 10.2678 18.6776 6.84521 20.9647 4.56348V4.18298L18.6776 3.80286C18.2964 3.80286 17.9153 3.42249 17.9153 3.04224V0.760498ZM26.3012 4.94373C23.2517 7.22546 21.7271 10.2679 21.7271 14.0709C21.7271 19.7754 25.92 23.5784 32.0188 23.5784C38.1176 23.5784 41.9294 19.7754 41.9294 14.0709C41.9294 10.2679 40.7859 7.22546 37.7364 4.94373H26.3012ZM77.76 241.109C78.1412 240.729 78.1412 240.729 78.5224 241.109L81.1907 243.01C81.5718 243.391 81.5718 243.771 81.1907 243.771C78.9036 246.053 77.76 249.095 77.76 252.898C77.76 257.081 78.9036 259.363 81.1907 259.363C83.4777 259.363 84.2401 256.321 85.0024 252.137C85.7648 244.912 88.0518 239.968 93.7694 239.968C99.4871 239.968 102.155 245.672 102.155 252.518C102.155 257.842 100.631 262.025 97.5812 265.448C97.2 265.828 97.2 265.828 96.8188 265.448L94.1506 263.547C93.7695 263.166 93.7695 262.786 94.1506 262.406C96.8189 259.363 97.9624 256.321 97.9624 252.137C97.9624 246.813 96.0565 244.151 93.7694 244.151C91.1012 244.151 89.9576 247.193 89.5765 252.518C88.8141 258.603 87.2895 263.927 81.1907 263.927C76.6165 263.927 73.5671 259.363 73.5671 252.518C73.5671 248.715 74.7106 244.151 77.76 241.109ZM110.541 234.644C110.541 235.024 110.16 235.404 109.779 235.404H74.7106C74.3294 235.404 73.9482 235.024 73.9482 234.644V231.982C73.9482 231.601 74.3294 231.221 74.7106 231.221L76.6165 230.841V230.46C74.3294 228.179 73.5671 225.136 73.5671 221.714C73.5671 213.727 79.2847 207.643 88.0518 207.643C96.8188 207.643 102.536 213.727 102.536 221.714C102.536 225.136 101.393 228.179 99.1059 230.841H109.779C110.16 230.841 110.541 231.221 110.541 231.601V234.644ZM93.7694 230.841C96.8188 228.559 97.9624 225.517 97.9624 221.714C97.9624 216.009 93.7694 212.206 88.0518 212.206C81.953 212.206 77.76 216.009 77.76 221.714C77.76 225.136 78.9035 228.559 81.9529 230.841H93.7694ZM97.9624 182.923C100.631 185.585 102.155 189.388 102.155 193.572C102.155 200.036 98.3435 203.84 93.3882 203.84C88.4329 203.84 85.0024 199.656 84.6212 194.713L83.0965 183.684H82.3341C79.2847 183.684 77.76 186.346 77.76 190.149C77.76 193.572 78.5224 196.614 80.8095 199.656C81.1906 200.037 81.1906 200.417 80.8095 200.797L78.5224 202.699C78.1412 203.079 77.7601 203.079 77.3789 202.699C74.7107 199.276 73.5671 195.473 73.5671 190.529C73.5671 184.444 76.6165 179.12 82.7153 179.12H92.2448C94.5318 179.12 96.4376 178.74 98.7247 177.979L100.249 177.599C100.631 177.219 101.012 177.599 101.012 177.979L102.155 180.641C102.155 181.022 102.155 181.402 101.774 181.402L97.9624 182.923ZM87.2894 183.684L88.8142 194.332C89.1954 196.994 90.72 199.276 93.007 199.276C96.0564 199.276 97.5812 196.614 97.5812 193.191C97.5812 189.388 96.0564 185.585 93.007 183.684H87.2894ZM79.6659 147.175C80.047 146.795 80.4283 146.795 80.4283 147.175L82.3341 149.457C82.7153 149.837 82.3341 150.218 82.3341 150.218C79.2847 152.499 78.1412 155.161 78.1412 158.584C78.1412 164.289 82.3341 168.472 88.0518 168.472C93.7694 168.472 98.3436 164.289 98.3436 158.584C98.3436 155.161 96.8188 152.119 93.7694 150.218C93.3883 149.837 93.3883 149.837 93.7694 149.457L95.6753 147.175C96.0565 146.795 96.0565 146.795 96.4377 147.175C100.249 149.837 102.536 154.401 102.536 158.964C102.536 167.331 96.4377 173.416 88.0518 173.416C79.6659 173.416 73.5671 166.951 73.5671 158.964C73.5671 154.021 75.4729 149.837 79.6659 147.175ZM73.5671 128.921C73.5671 120.554 79.6659 114.85 88.0518 114.85H89.5765C89.9576 114.85 90.3389 115.23 90.3389 115.61L90.3389 138.809C94.913 138.048 98.3436 134.625 98.3436 128.921C98.3436 125.498 97.2 122.836 94.9129 119.794C94.5317 119.413 94.5317 119.413 94.9129 119.033L97.2 117.132C97.5812 116.751 97.9624 116.751 97.9624 117.132C101.012 120.554 102.155 124.738 102.155 128.921C102.155 137.668 96.0565 143.753 87.6706 143.753C79.6659 143.372 73.5671 137.287 73.5671 128.921ZM85.7647 138.809L85.7647 119.794C81.1906 120.174 77.76 124.357 77.76 128.921C77.76 133.865 81.1906 138.048 85.7647 138.809Z" fill="#FF0000"/>
</svg>
