<svg width="28" height="28" viewBox="0 0 28 28" fill="none" xmlns="http://www.w3.org/2000/svg">
<path d="M27.9999 17.9462H10.3408L3.57943 11.0496L1.98853 12.5055L9.38626 20.0918H10.8976V23.9999H13.1249V20.0918H24.1817V23.9999H26.3294V20.0918H27.9999V17.9462Z" fill="#1E1E1C"/>
<path d="M3.18182 10.1303C4.93181 10.1303 6.36363 8.751 6.36363 7.06516C6.36363 5.37932 4.93181 4 3.18182 4C1.43182 4 0 5.37932 0 7.06516C0 8.751 1.43182 10.1303 3.18182 10.1303ZM3.18182 5.76247C3.97727 5.76247 4.61365 6.3755 4.61365 7.1418C4.61365 7.90809 3.97727 8.52111 3.18182 8.52111C2.38636 8.52111 1.75001 7.90809 1.75001 7.1418C1.75001 6.3755 2.38636 5.76247 3.18182 5.76247Z" fill="#1E1E1C"/>
<path d="M11.1363 16.6437H25.8522V14.4981H21.3181L16.9431 10.2835L12.5681 14.4981H12.1704L7.15902 9.28735L5.56812 10.7433L11.1363 16.6437ZM16.9431 13.3487L18.2158 14.5747H15.6704L16.9431 13.3487Z" fill="#1E1E1C"/>
</svg>
