<svg width="438" height="94" viewBox="0 0 438 94" fill="none" xmlns="http://www.w3.org/2000/svg">
<path d="M0 0H31.8487V66.9153H63.034V94H0V0Z" fill="#FF0000"/>
<path d="M72.8312 0H137.458V26.2881H102.557V34.387H135.334V58.9492H102.557V67.7119H139.714V94H72.8312V0Z" fill="#FF0000"/>
<path d="M178.932 0H212.506L249.132 94H214.762L209.852 80.1921H179.994L175.35 94H141.908L178.932 0ZM195.255 32.7938L187.558 56.0282H202.819L195.255 32.7938Z" fill="#FF0000"/>
<path d="M255.816 0H296.291C300.891 0 305.447 0.486816 309.959 1.46045C314.56 2.34557 318.629 3.98305 322.168 6.37288C325.795 8.6742 328.715 11.8164 330.926 15.7994C333.138 19.694 334.244 24.6064 334.244 30.5367C334.244 36.29 332.828 41.3795 329.997 45.8051C327.166 50.1422 323.097 53.5056 317.789 55.8955L341.675 94H305.315L287.267 60.4096H286.338V94H255.816V0ZM286.073 39.6977H292.31C293.371 39.6977 294.521 39.6092 295.76 39.4322C297.087 39.2552 298.281 38.9011 299.343 38.3701C300.493 37.7505 301.422 36.9539 302.13 35.9802C302.926 34.9181 303.324 33.5461 303.324 31.8644C303.324 30.1827 303.014 28.855 302.395 27.8814C301.776 26.9077 300.98 26.1996 300.006 25.7571C299.033 25.226 297.972 24.9162 296.822 24.8277C295.671 24.6507 294.61 24.5621 293.637 24.5621H286.073V39.6977Z" fill="#FF0000"/>
<path d="M350.549 0H381.999L408.805 47.6638H409.336L408.009 0H438V94H405.753L379.743 49.1243H379.213L380.54 94H350.549V0Z" fill="#FF0000"/>
</svg>
