<svg width="108" height="499" viewBox="0 0 108 499" fill="none" xmlns="http://www.w3.org/2000/svg">
<path d="M-9.15527e-05 42.912C-9.15527e-05 38.784 0.383911 34.704 1.15191 30.672C1.82391 26.736 2.83191 22.896 4.17591 19.152C5.61591 15.504 7.24791 12.048 9.07191 8.784C10.9919 5.52 13.1039 2.592 15.4079 0L38.1599 20.88C35.5679 23.28 33.2639 26.448 31.2479 30.384C29.2319 34.416 28.2239 38.544 28.2239 42.768C28.2239 44.688 28.5599 46.416 29.2319 47.952C29.9039 49.584 31.1519 50.4 32.9759 50.4C33.9359 50.4 34.7519 50.112 35.4239 49.536C36.0959 49.056 36.7679 48.144 37.4399 46.8C38.2079 45.456 39.0239 43.584 39.8879 41.184C40.7519 38.88 41.7599 35.952 42.9119 32.4C44.0639 28.944 45.4079 25.632 46.9439 22.464C48.5759 19.296 50.5439 16.464 52.8479 13.968C55.1519 11.568 57.8879 9.648 61.0559 8.208C64.3199 6.768 68.2079 6.048 72.7199 6.048C79.0559 6.048 84.4319 7.344 88.8479 9.936C93.2639 12.528 96.8639 15.84 99.6479 19.872C102.528 24 104.592 28.608 105.84 33.696C107.088 38.784 107.712 43.824 107.712 48.816C107.712 55.536 106.416 62.352 103.824 69.264C101.232 76.272 97.4879 82.416 92.5919 87.696L70.8479 66.384C73.7279 64.08 75.8879 61.248 77.3279 57.888C78.8639 54.528 79.6319 51.504 79.6319 48.816C79.6319 46.32 79.2479 44.304 78.4799 42.768C77.8079 41.232 76.6559 40.464 75.0239 40.464C73.4879 40.464 72.3359 41.232 71.5679 42.768C70.7999 44.4 69.8399 46.992 68.6879 50.544C67.5359 54.192 66.1919 58.032 64.6559 62.064C63.1199 66.096 61.1039 69.792 58.6079 73.152C56.2079 76.608 53.2319 79.44 49.6799 81.648C46.1279 83.856 41.7119 84.96 36.4319 84.96C30.2879 84.96 24.9119 83.712 20.3039 81.216C15.7919 78.816 11.9999 75.6 8.92791 71.568C5.95191 67.632 3.74391 63.168 2.30391 58.176C0.767906 53.184 -9.15527e-05 48.096 -9.15527e-05 42.912Z" fill="#FF0000"/>
<path d="M35.7119 132.507L2.87991 132.507L2.87991 98.379L104.832 98.379L104.832 142.155C104.832 147.339 104.256 152.427 103.104 157.419C102.048 162.411 100.176 166.875 97.4879 170.811C94.8959 174.747 91.3919 177.915 86.9759 180.315C82.6559 182.715 77.1839 183.915 70.5599 183.915C64.2239 183.915 58.8479 182.715 54.4319 180.315C50.0159 178.011 46.4159 174.891 43.6319 170.955C40.8479 167.115 38.8319 162.651 37.5839 157.563C36.3359 152.571 35.7119 147.435 35.7119 142.155V132.507ZM78.1919 132.507H61.7759L61.7759 139.707C61.7759 142.299 62.3999 144.651 63.6479 146.763C64.9919 148.971 67.1999 150.075 70.2719 150.075C71.9039 150.075 73.1999 149.787 74.1599 149.211C75.2159 148.635 76.0319 147.819 76.6079 146.763C77.1839 145.803 77.5679 144.699 77.7599 143.451C78.0479 142.203 78.1919 140.955 78.1919 139.707V132.507Z" fill="#FF0000"/>
<path d="M104.832 196.816V266.945H76.3199L76.3199 229.073H67.5359L67.5359 264.641H40.8959V229.073H31.3919V269.393H2.87991V196.816L104.832 196.816Z" fill="#FF0000"/>
<path d="M104.832 311.95V348.382L2.87991 388.126V350.83L17.8559 345.502V313.102L2.87991 308.062V271.774L104.832 311.95ZM69.2639 329.662L44.0639 321.31L44.0639 337.87L69.2639 329.662Z" fill="#FF0000"/>
<path d="M43.4879 429.075V428.787H2.87991L2.87991 395.379H104.832L104.832 428.643H67.2479V428.931L104.832 456.147V496.467L58.1759 458.163L2.87991 498.339V456.291L43.4879 429.075Z" fill="#FF0000"/>
</svg>
