<svg width="28" height="28" viewBox="0 0 28 28" fill="none" xmlns="http://www.w3.org/2000/svg">
<path d="M24.4855 27.9993V18.1579H26V15.7824H21.2041V9.41943H18.8482V13.8311H15.5668V15.7824H11.1917V18.1579H12.7061V27.9993H15.062V18.1579H22.1296V27.9993H24.4855Z" fill="#1E1E1C"/>
<path d="M8.0767 27.9998H10.4326V19.6006H4.5429V12.8135H2.18701V21.9762H8.0767V27.9998Z" fill="#1E1E1C"/>
<path d="M0 7.72227C0 9.58878 1.51449 11.1159 3.36554 11.1159C5.21659 11.1159 6.73108 9.58878 6.73108 7.72227C6.73108 5.85576 5.21659 4.32861 3.36554 4.32861C1.51449 4.32861 0 5.85576 0 7.72227ZM4.88005 7.72227C4.88005 8.57068 4.20692 9.24943 3.36554 9.24943C2.52415 9.24943 1.85106 8.57068 1.85106 7.72227C1.85106 6.87385 2.52415 6.19513 3.36554 6.19513C4.20692 6.19513 4.88005 6.87385 4.88005 7.72227Z" fill="#1E1E1C"/>
<path d="M18.8864 7.25842e-05L14.2498 12.4727L16.4558 13.3065L21.0925 0.833875L18.8864 7.25842e-05Z" fill="#1E1E1C"/>
</svg>
