<svg width="28" height="28" viewBox="0 0 28 28" fill="none" xmlns="http://www.w3.org/2000/svg">
<path d="M18.9825 13.6774H7.90918V15.6845H12.4392V23.9999H14.4525V15.6845H18.9825V13.6774Z" fill="#1E1E1C"/>
<path d="M23.0826 16.9032H18.0493V24H20.0626V18.9104H25.0959V11.1685H23.0826V16.9032Z" fill="#1E1E1C"/>
<path d="M6.83225 24H8.84559V16.9032H3.88416V11.1685H1.87085V18.9104H6.83225V24Z" fill="#1E1E1C"/>
<path d="M5.75237 6.86738C5.75237 5.29032 4.45809 4 2.87618 4C1.29428 4 0 5.29032 0 6.86738C0 8.44444 1.29428 9.73476 2.87618 9.73476C4.45809 9.73476 5.75237 8.44444 5.75237 6.86738ZM1.58191 6.86738C1.58191 6.15053 2.15714 5.57707 2.87618 5.57707C3.59523 5.57707 4.17048 6.15053 4.17048 6.86738C4.17048 7.58422 3.59523 8.15771 2.87618 8.15771C2.15714 8.15771 1.58191 7.58422 1.58191 6.86738Z" fill="#1E1E1C"/>
<path d="M24.0876 4C22.5057 4 21.2114 5.29032 21.2114 6.86738C21.2114 8.44444 22.5057 9.73476 24.0876 9.73476C25.6695 9.73476 26.9638 8.44444 26.9638 6.86738C26.9638 5.29032 25.6695 4 24.0876 4ZM24.0876 8.15771C23.3686 8.15771 22.7933 7.58422 22.7933 6.86738C22.7933 6.15053 23.3686 5.57707 24.0876 5.57707C24.8067 5.57707 25.3819 6.15053 25.3819 6.86738C25.3819 7.58422 24.7348 8.15771 24.0876 8.15771Z" fill="#1E1E1C"/>
</svg>
