<svg width="24" height="28" viewBox="0 0 24 28" fill="none" xmlns="http://www.w3.org/2000/svg">
<path d="M11.9808 17.3297C8.78833 17.3297 6.19678 14.8591 6.19678 11.8156C6.19678 8.77211 8.78833 6.30151 11.9808 6.30151C15.1733 6.30151 17.7649 8.77211 17.7649 11.8156C17.7649 14.8591 15.1733 17.3297 11.9808 17.3297ZM11.9808 9.77467C10.8165 9.77467 9.83997 10.7056 9.83997 11.8156C9.83997 12.9256 10.8165 13.8565 11.9808 13.8565C13.1451 13.8565 14.1217 12.9256 14.1217 11.8156C14.1217 10.7056 13.1451 9.77467 11.9808 9.77467Z" fill="#020203"/>
<path d="M11.9812 22.8439C8.41315 22.8439 5.03288 21.3401 2.7418 18.7263C2.66668 18.6547 2.59157 18.5473 2.55401 18.4757C0.863868 16.4706 0 14.0358 0 11.422C0 5.12019 5.3709 0 11.9812 0C18.5916 0 24 5.12019 24 11.422C24 13.9642 23.0986 16.4706 21.446 18.4757C21.3709 18.5831 21.2958 18.6905 21.2206 18.7621C18.892 21.3759 15.5493 22.8439 11.9812 22.8439ZM11.9812 3.43733C7.36151 3.43733 3.60565 7.01789 3.60565 11.422C3.60565 13.2481 4.24414 14.9667 5.40846 16.3631L5.52113 16.5064C7.13615 18.3682 9.50235 19.4424 11.9812 19.4424C14.4601 19.4424 16.8263 18.4041 18.4037 16.5422L18.5164 16.3989C19.7183 15.0025 20.3193 13.2839 20.3193 11.4578C20.3568 7.01789 16.6009 3.43733 11.9812 3.43733Z" fill="#020203"/>
<path d="M22.1593 24.5271H1.80249V28.0002H22.1593V24.5271Z" fill="#020203"/>
</svg>
