<svg width="28" height="28" viewBox="0 0 28 28" fill="none" xmlns="http://www.w3.org/2000/svg">
<path d="M13.1797 5.89268V9.07817H9.89844V13.7927L6.61719 14.0654V17.2813H3.33594V22.045L0 22.2527V27.125H28C28 19.5424 28 12.9486 28 4.04785L13.1797 5.89268ZM26.3594 25.4844H1.64062V23.7943L26.3594 22.2558V25.4844ZM4.97656 21.9429V18.9219H26.3594V20.612L4.97656 21.9429ZM26.3594 17.2813H8.25781V15.5753L26.3594 14.071V17.2813ZM11.5391 13.6564V10.7188H26.3594V12.4248L11.5391 13.6564ZM14.8203 9.07817V7.34179L26.3594 5.90537V9.07817H14.8203Z" fill="black"/>
<path d="M5.79688 9.07812C8.05848 9.07812 9.89844 7.23816 9.89844 4.97656C9.89844 2.71496 8.05848 0.875 5.79688 0.875C3.53527 0.875 1.69531 2.71496 1.69531 4.97656C1.69531 7.23816 3.53527 9.07812 5.79688 9.07812ZM5.79688 2.51562C7.15384 2.51562 8.25781 3.6196 8.25781 4.97656C8.25781 6.33352 7.15384 7.4375 5.79688 7.4375C4.43991 7.4375 3.33594 6.33352 3.33594 4.97656C3.33594 3.6196 4.43991 2.51562 5.79688 2.51562Z" fill="black"/>
</svg>
