<svg width="28" height="28" viewBox="0 0 28 28" fill="none" xmlns="http://www.w3.org/2000/svg">
<path d="M22.5312 6.5625C24.3405 6.5625 25.8125 5.09053 25.8125 3.28125C25.8125 1.47197 24.3405 0 22.5312 0C20.722 0 19.25 1.47197 19.25 3.28125C19.25 5.09053 20.722 6.5625 22.5312 6.5625ZM22.5312 2.1875C23.1343 2.1875 23.625 2.67816 23.625 3.28125C23.625 3.88434 23.1343 4.375 22.5312 4.375C21.9282 4.375 21.4375 3.88434 21.4375 3.28125C21.4375 2.67816 21.9282 2.1875 22.5312 2.1875Z" fill="black"/>
<path d="M15.9688 25.8125H2.1875V17.8828H13.7812C14.3853 17.8828 14.875 17.3931 14.875 16.7891C14.875 16.185 14.3853 15.6953 13.7812 15.6953H4.15625V11.1562C4.15625 10.5532 4.64691 10.0625 5.25 10.0625H9.625C10.2281 10.0625 10.7188 10.5532 10.7188 11.1562V12.4141C10.7188 13.0181 11.2084 13.5078 11.8125 13.5078C12.4166 13.5078 12.9062 13.0181 12.9062 12.4141V11.1562C12.9062 9.34697 11.4343 7.875 9.625 7.875H5.25C3.44072 7.875 1.96875 9.34697 1.96875 11.1562V15.6953H1.09375C0.489672 15.6953 0 16.185 0 16.7891V28H15.9688C16.5728 28 17.0625 27.5103 17.0625 26.9062C17.0625 26.3022 16.5728 25.8125 15.9688 25.8125Z" fill="black"/>
<path d="M7.71094 6.61719C9.52022 6.61719 10.9922 5.14522 10.9922 3.33594C10.9922 1.52666 9.52022 0.0546875 7.71094 0.0546875C5.90166 0.0546875 4.42969 1.52666 4.42969 3.33594C4.42969 5.14522 5.90166 6.61719 7.71094 6.61719ZM7.71094 2.24219C8.31403 2.24219 8.80469 2.73284 8.80469 3.33594C8.80469 3.93903 8.31403 4.42969 7.71094 4.42969C7.10784 4.42969 6.61719 3.93903 6.61719 3.33594C6.61719 2.73284 7.10784 2.24219 7.71094 2.24219Z" fill="black"/>
<path d="M24.7188 7.60156H20.3438C18.5345 7.60156 17.0625 9.07353 17.0625 10.8828V16.8438C17.0625 18.2697 17.9768 19.4862 19.25 19.9376V26.9062C19.25 27.5103 19.7397 28 20.3438 28C20.9478 28 21.4375 27.5103 21.4375 26.9062V19.0312C21.4375 18.4272 20.9478 17.9375 20.3438 17.9375C19.7407 17.9375 19.25 17.4468 19.25 16.8438V10.8828C19.25 10.2797 19.7407 9.78906 20.3438 9.78906H24.7188C25.3218 9.78906 25.8125 10.2797 25.8125 10.8828V16.8438C25.8125 17.4468 25.3218 17.9375 24.7188 17.9375C24.1147 17.9375 23.625 18.4272 23.625 19.0312V26.9062C23.625 27.5103 24.1147 28 24.7188 28C25.3228 28 25.8125 27.5103 25.8125 26.9062V19.9376C27.0857 19.4861 28 18.2697 28 16.8438V10.8828C28 9.07353 26.528 7.60156 24.7188 7.60156Z" fill="black"/>
</svg>
