<svg width="29" height="28" viewBox="0 0 29 28" fill="none" xmlns="http://www.w3.org/2000/svg">
<path d="M5.04358 18.6121H2.76506V28.0001H5.04358V18.6121Z" fill="#1E1E1C"/>
<path d="M8.62609 18.6121H6.34757V28.0001H8.62609V18.6121Z" fill="#1E1E1C"/>
<path d="M11.3113 18.6128V8.0821H0V18.6128H2.27852V10.3678H9.11411V18.6128H11.3113Z" fill="#1E1E1C"/>
<path d="M5.69605 0C3.90578 0 2.44101 1.46942 2.44101 3.26538C2.44101 5.06134 3.90578 6.53076 5.69605 6.53076C7.48632 6.53076 8.95109 5.06134 8.95109 3.26538C8.95109 1.46942 7.48632 0 5.69605 0ZM5.69605 4.73482C4.88229 4.73482 4.23127 4.08173 4.23127 3.26538C4.23127 2.44904 4.88229 1.79597 5.69605 1.79597C6.50981 1.79597 7.16081 2.44904 7.16081 3.26538C7.16081 4.08173 6.50981 4.73482 5.69605 4.73482Z" fill="#1E1E1C"/>
<path d="M19.3059 8.05961L17 19.7535H20.0118V27.9998H22.3176V19.7535H23.6823V27.9998H25.9882V19.7535H29L26.6941 8.05961H19.3059ZM19.8235 17.424L21.2353 10.2959H24.8588L26.2706 17.424H19.8235Z" fill="#1E1E1C"/>
<path d="M23.0235 6.52242C24.8588 6.52242 26.3176 5.07817 26.3176 3.26121C26.3176 1.44425 24.8588 0 23.0235 0C21.1882 0 19.7294 1.44425 19.7294 3.26121C19.7294 5.07817 21.1882 6.52242 23.0235 6.52242ZM23.0235 1.81697C23.8235 1.81697 24.4823 2.4692 24.4823 3.26121C24.4823 4.05322 23.8235 4.70546 23.0235 4.70546C22.2235 4.70546 21.5647 4.05322 21.5647 3.26121C21.5647 2.4692 22.2235 1.81697 23.0235 1.81697Z" fill="#1E1E1C"/>
</svg>
