<svg width="296" height="49" viewBox="0 0 296 49" fill="none" xmlns="http://www.w3.org/2000/svg">
<path d="M18.1236 1.31016H34.5583L52.4871 47.6898H35.6626L33.2591 40.877H18.6433L16.3697 47.6898H0L18.1236 1.31016ZM26.1136 17.4906L22.346 28.9545H29.8163L26.1136 17.4906Z" fill="#FF0000"/>
<path d="M52.5383 24.5C52.5383 20.7879 53.1879 17.4251 54.4871 14.4118C55.7863 11.3984 57.5618 8.82175 59.8138 6.68182C62.0657 4.54189 64.7074 2.90419 67.7388 1.76872C70.8135 0.589572 74.0832 0 77.5476 0C81.0988 0 84.455 0.589572 87.6163 1.76872C90.7777 2.90419 93.4194 4.45455 95.5414 6.41979L86.0573 17.9492C85.1912 16.8137 84.1085 15.9621 82.8093 15.3944C81.5102 14.783 80.0594 14.4773 78.4571 14.4773C77.1579 14.4773 75.9453 14.7175 74.8194 15.1979C73.6934 15.6346 72.6974 16.2897 71.8312 17.1631C71.0084 18.0365 70.3588 19.1065 69.8824 20.373C69.4061 21.5958 69.1679 22.9715 69.1679 24.5C69.1679 26.0285 69.4061 27.4042 69.8824 28.627C70.4021 29.8062 71.0734 30.8324 71.8962 31.7059C72.7623 32.5793 73.7584 33.2562 74.8843 33.7366C76.0103 34.1733 77.2012 34.3917 78.4571 34.3917C80.2326 34.3917 81.7483 34.0205 83.0042 33.2781C84.3034 32.5357 85.3211 31.6622 86.0573 30.6578L95.5414 42.1217C93.4627 44.2179 90.9076 45.8993 87.8762 47.1658C84.8447 48.3886 81.4019 49 77.5476 49C74.0832 49 70.8135 48.4104 67.7388 47.2313C64.7074 46.0521 62.0657 44.3926 59.8138 42.2527C57.5618 40.0691 55.7863 37.4924 54.4871 34.5227C53.1879 31.5094 52.5383 28.1685 52.5383 24.5Z" fill="#FF0000"/>
<path d="M127.91 30.0682H115.308V47.6898H99.8474V1.31016H115.243V17.0321H127.845V1.31016H143.37V47.6898H127.91V30.0682Z" fill="#FF0000"/>
<path d="M151.929 1.31016H167.519V47.6898H151.929V1.31016Z" fill="#FF0000"/>
<path d="M176.098 1.31016H207.734V14.2807H190.649V18.2767H206.694V30.3957H190.649V34.7192H208.838V47.6898H176.098V1.31016Z" fill="#FF0000"/>
<path d="M209.912 1.31016H227.386L234.987 30.0027H235.246L242.522 1.31016H259.996L243.366 47.6898H226.217L209.912 1.31016Z" fill="#FF0000"/>
<path d="M263.261 1.31016H294.896V14.2807H277.811V18.2767H293.856V30.3957H277.811V34.7192H296V47.6898H263.261V1.31016Z" fill="#FF0000"/>
</svg>
