<svg width="232" height="232" viewBox="0 0 232 232" fill="none" xmlns="http://www.w3.org/2000/svg">
<g clip-path="url(#clip0)">
<path d="M232 183.459L29.5772 183.459V189.554H0L0 42.0001H29.5772V48.0951L232.001 48.0951L181.584 115.777L232 183.459Z" fill="#FF0000"/>
<path d="M31.5039 124V104.094H38.6543C41.2155 104.094 43.1615 104.563 44.4922 105.502C45.832 106.441 46.502 107.803 46.502 109.59C46.502 110.62 46.265 111.499 45.791 112.229C45.3171 112.958 44.6198 113.495 43.6992 113.842C44.7383 114.115 45.5358 114.626 46.0918 115.373C46.6478 116.12 46.9258 117.032 46.9258 118.107C46.9258 120.058 46.306 121.525 45.0664 122.51C43.8359 123.485 42.0085 123.982 39.584 124H31.5039ZM36.3027 115.537V120.309H39.4473C40.3132 120.309 40.9785 120.113 41.4434 119.721C41.9082 119.32 42.1406 118.759 42.1406 118.039C42.1406 116.38 41.3158 115.546 39.666 115.537H36.3027ZM36.3027 112.393H38.8047C39.8529 112.383 40.6003 112.192 41.0469 111.818C41.4935 111.445 41.7168 110.893 41.7168 110.164C41.7168 109.326 41.4753 108.724 40.9922 108.359C40.5091 107.986 39.7298 107.799 38.6543 107.799H36.3027V112.393ZM48.7852 116.467C48.7852 114.99 49.0723 113.678 49.6465 112.529C50.2207 111.372 51.0456 110.483 52.1211 109.863C53.1966 109.243 54.459 108.934 55.9082 108.934C58.123 108.934 59.8685 109.622 61.1445 110.998C62.4206 112.365 63.0586 114.229 63.0586 116.59V116.754C63.0586 119.06 62.416 120.892 61.1309 122.25C59.8548 123.599 58.123 124.273 55.9355 124.273C53.8301 124.273 52.1393 123.645 50.8633 122.387C49.5872 121.12 48.8991 119.406 48.7988 117.246L48.7852 116.467ZM53.3926 116.754C53.3926 118.121 53.6068 119.124 54.0352 119.762C54.4635 120.4 55.097 120.719 55.9355 120.719C57.5762 120.719 58.4147 119.456 58.4512 116.932V116.467C58.4512 113.814 57.6035 112.488 55.9082 112.488C54.3678 112.488 53.5339 113.632 53.4062 115.92L53.3926 116.754ZM64.5078 116.467C64.5078 114.99 64.7949 113.678 65.3691 112.529C65.9434 111.372 66.7682 110.483 67.8438 109.863C68.9193 109.243 70.1816 108.934 71.6309 108.934C73.8457 108.934 75.5911 109.622 76.8672 110.998C78.1432 112.365 78.7812 114.229 78.7812 116.59V116.754C78.7812 119.06 78.1387 120.892 76.8535 122.25C75.5775 123.599 73.8457 124.273 71.6582 124.273C69.5527 124.273 67.862 123.645 66.5859 122.387C65.3099 121.12 64.6217 119.406 64.5215 117.246L64.5078 116.467ZM69.1152 116.754C69.1152 118.121 69.3294 119.124 69.7578 119.762C70.1862 120.4 70.8197 120.719 71.6582 120.719C73.2988 120.719 74.1374 119.456 74.1738 116.932V116.467C74.1738 113.814 73.3262 112.488 71.6309 112.488C70.0905 112.488 69.2565 113.632 69.1289 115.92L69.1152 116.754ZM86.752 118.49L85.4531 119.789V124H80.8457V102.986H85.4531V114.143L85.918 113.527L89.3906 109.207H94.9141L89.7324 115.291L95.2559 124H89.9785L86.752 118.49ZM119.934 124H115.162L108.107 111.613V124H103.309V104.094H108.107L115.148 116.48V104.094H119.934V124ZM122.176 116.467C122.176 114.99 122.463 113.678 123.037 112.529C123.611 111.372 124.436 110.483 125.512 109.863C126.587 109.243 127.85 108.934 129.299 108.934C131.514 108.934 133.259 109.622 134.535 110.998C135.811 112.365 136.449 114.229 136.449 116.59V116.754C136.449 119.06 135.807 120.892 134.521 122.25C133.245 123.599 131.514 124.273 129.326 124.273C127.221 124.273 125.53 123.645 124.254 122.387C122.978 121.12 122.29 119.406 122.189 117.246L122.176 116.467ZM126.783 116.754C126.783 118.121 126.997 119.124 127.426 119.762C127.854 120.4 128.488 120.719 129.326 120.719C130.967 120.719 131.805 119.456 131.842 116.932V116.467C131.842 113.814 130.994 112.488 129.299 112.488C127.758 112.488 126.924 113.632 126.797 115.92L126.783 116.754ZM151.256 117.93L152.746 109.207H157.162L153.676 124H149.779L147.332 115.223L144.871 124H140.975L137.488 109.207H141.904L143.367 118.135L145.719 109.207H148.932L151.256 117.93Z" fill="white"/>
</g>
<defs>
<clipPath id="clip0">
<rect width="232" height="232" fill="white" transform="translate(0 232) rotate(-90)"/>
</clipPath>
</defs>
</svg>
