<svg width="365" height="43" viewBox="0 0 365 43" fill="none" xmlns="http://www.w3.org/2000/svg">
<path d="M0 35.1H20.6V42.5H0V35.1ZM51.7 30.9L50.6 27.3H39.7L38.6 30.9H28.2L39.4 0.5H51L62.2 30.9H51.7ZM45.1 9.5L42.1 19.3H48.1L45.1 9.5ZM84.1 30.9L72.9 15.5V30.9H63.7V0.5H73.2L83.8 14.9V0.5H93V30.9H84.1ZM97.9 30.9V0.5H111.4C121 0.5 128.1 6.00001 128.1 15.7C128.1 25.4 121 30.9 111.5 30.9H97.9ZM118.8 15.6C118.8 11.5 116.4 8.5 111.5 8.5H107.1V22.8H111.5C116 22.8 118.8 19.5 118.8 15.6ZM166.2 30.9L162.3 13.7L158.4 30.9H148.7L140 0.5H150.3L154.2 19.1L158.8 0.5H165.7L170.3 19.1L174.2 0.5H184.5L175.8 30.9H166.2ZM184.8 15.7C184.8 6.40001 192 0 201.4 0C210.8 0 218 6.40001 218 15.7C218 25 210.8 31.4 201.4 31.4C192 31.4 184.8 25 184.8 15.7ZM208.7 15.7C208.7 11.5 205.8 8.10001 201.4 8.10001C197 8.10001 194.1 11.5 194.1 15.7C194.1 19.9 197 23.3 201.4 23.3C205.8 23.3 208.7 19.9 208.7 15.7ZM238 30.9L233.8 21.3H230.5V30.9H221.3V0.5H237.5C244.6 0.5 248.4 5.19999 248.4 10.9C248.4 16.1 245.3 18.9 242.9 20.1L248.4 30.8H238V30.9ZM239.1 10.9C239.1 9.29999 237.6 8.5 236.1 8.5H230.5V13.3H236.1C237.6 13.3 239.1 12.5 239.1 10.9ZM269.8 30.9L263 20.2L261.3 22.5V30.9H252.1V0.5H261.3V11.9L269.3 0.5H280.5L269.1 14.6L281.1 30.9H269.8ZM301.8 6.20001C301.9 6.30001 301.9 6.39999 301.8 6.39999L301.2 6.89999C301.1 6.99999 301 6.89999 301 6.89999C300.4 6.09999 299.7 5.80002 298.8 5.80002C297.3 5.80002 296.2 6.89999 296.2 8.39999C296.2 9.89999 297.3 11.1 298.8 11.1C299.7 11.1 300.5 10.7 301 9.89999C301.1 9.79999 301.1 9.79999 301.2 9.89999L301.8 10.4C301.9 10.5 301.9 10.5 301.8 10.6C301.1 11.6 299.9 12.2 298.7 12.2C296.5 12.2 294.9 10.6 294.9 8.39999C294.9 6.19999 296.6 4.60001 298.7 4.60001C300 4.60001 301.1 5.20001 301.8 6.20001ZM306.6 4.60001C308.7 4.60001 310.4 6.19999 310.4 8.39999C310.4 10.6 308.7 12.2 306.6 12.2C304.5 12.2 302.8 10.6 302.8 8.39999C302.8 6.19999 304.5 4.60001 306.6 4.60001ZM304 8.39999C304 9.89999 305 11 306.6 11C308.1 11 309.2 9.89999 309.2 8.39999C309.2 6.89999 308.2 5.70001 306.6 5.70001C305.1 5.70001 304 6.89999 304 8.39999ZM312.1 4.70001C312.2 4.70001 312.3 4.70002 312.3 4.80002L314 10.6H314.1L315.7 4.80002C315.7 4.70002 315.8 4.70001 315.9 4.70001H316.8C316.9 4.70001 317 4.70002 317 4.80002L318.7 10.6H318.8L320.5 4.80002C320.5 4.70002 320.6 4.70001 320.7 4.70001H321.7C321.8 4.70001 321.9 4.79999 321.8 4.89999L319.5 11.9C319.5 12 319.4 12.1 319.3 12.1H318.2C318.1 12.1 318 12 318 11.9L316.5 6.70001H316.4L314.9 11.9C314.9 12 314.8 12.1 314.7 12.1H313.6C313.5 12.1 313.4 12 313.4 11.9L311.1 4.80002C311.1 4.70002 311.1 4.70001 311.2 4.70001H312.1ZM326.4 4.60001C328.5 4.60001 330.2 6.19999 330.2 8.39999C330.2 10.6 328.5 12.2 326.4 12.2C324.3 12.2 322.6 10.6 322.6 8.39999C322.6 6.19999 324.2 4.60001 326.4 4.60001ZM323.8 8.39999C323.8 9.89999 324.8 11 326.4 11C327.9 11 329 9.89999 329 8.39999C329 6.89999 328 5.70001 326.4 5.70001C324.8 5.70001 323.8 6.89999 323.8 8.39999ZM332.4 4.70001C332.5 4.70001 332.6 4.79999 332.6 4.89999L332.7 5.5H332.8C333.4 4.9 334.1 4.60001 335 4.60001C336.4 4.60001 337.5 5.50002 337.9 6.80002C337.9 6.90002 337.9 6.9 337.8 7L336.9 7.30002C336.8 7.30002 336.8 7.30001 336.7 7.20001C336.4 6.40001 335.9 5.80002 334.9 5.80002C334 5.80002 333.3 6.19999 332.8 6.89999V11.9C332.8 12 332.7 12.1 332.6 12.1H331.7C331.6 12.1 331.5 12 331.5 11.9V4.89999C331.5 4.79999 331.6 4.70001 331.7 4.70001H332.4ZM339.9 2.39999C340 2.39999 340.1 2.50001 340.1 2.60001V8.10001L343.6 4.80002C343.7 4.70002 343.8 4.70001 344 4.70001H345.2C345.3 4.70001 345.4 4.79999 345.3 4.89999L342 7.89999L345.4 11.8C345.5 11.9 345.4 12 345.3 12H344.2C344 12 343.9 11.9 343.8 11.8L341.1 8.60001L340.1 9.39999V11.8C340.1 11.9 340 12 339.9 12H339C338.9 12 338.8 11.9 338.8 11.8V2.60001C338.8 2.50001 338.9 2.39999 339 2.39999H339.9ZM346.3 2.80002C346.3 2.30002 346.7 1.80002 347.3 1.80002C347.8 1.80002 348.3 2.20002 348.3 2.80002C348.3 3.40002 347.8 3.80002 347.3 3.80002C346.7 3.80002 346.3 3.40002 346.3 2.80002ZM347.6 4.70001C347.7 4.70001 347.8 4.79999 347.8 4.89999V11.9C347.8 12 347.7 12.1 347.6 12.1H346.7C346.6 12.1 346.5 12 346.5 11.9V4.89999C346.5 4.79999 346.6 4.70001 346.7 4.70001H347.6ZM349.5 4.89999C349.5 4.79999 349.6 4.70001 349.7 4.70001H350.4C350.5 4.70001 350.6 4.79999 350.6 4.89999L350.7 5.5H350.8C351.4 4.9 352.2 4.60001 353 4.60001C354.9 4.60001 356.2 5.69999 356.2 7.89999V11.9C356.2 12 356.1 12.1 356 12.1H355.1C355 12.1 354.9 12 354.9 11.9V8C354.9 6.6 354.2 5.80002 352.9 5.80002C351.9 5.80002 351.3 6.19999 350.7 6.89999V11.9C350.7 12 350.6 12.1 350.5 12.1H349.6C349.5 12.1 349.4 12 349.4 11.9V4.89999H349.5ZM364.5 4.70001C364.6 4.70001 364.7 4.79999 364.7 4.89999V11C364.7 13.3 363.4 14.9 361.1 14.9C359.8 14.9 358.6 14.5 357.8 13.6C357.7 13.5 357.7 13.4 357.8 13.3L358.4 12.7C358.5 12.6 358.6 12.6 358.7 12.7C359.3 13.4 360.2 13.7 361.1 13.7C362.6 13.7 363.5 12.8 363.6 11.3H363.4C362.8 11.9 362 12.2 361.1 12.2C359 12.2 357.4 10.7 357.4 8.39999C357.4 6.09999 359 4.60001 361.1 4.60001C362 4.60001 362.9 4.9 363.5 5.5H363.6L363.7 4.89999C363.7 4.79999 363.8 4.70001 363.9 4.70001H364.5ZM363.4 6.89999C362.8 6.09999 362 5.70001 361 5.70001C359.5 5.70001 358.5 6.79999 358.5 8.39999C358.5 9.99999 359.5 11 361 11C362 11 362.8 10.7 363.4 9.89999V6.89999ZM301.3 20.4C301.4 20.5 301.4 20.5 301.3 20.6L300.8 21.3C300.7 21.4 300.6 21.4 300.6 21.3C300 20.7 299.2 20.4 298.2 20.4C297.1 20.4 296.5 20.7 296.5 21.3C296.5 21.9 297.3 22.1 298.4 22.3C300.3 22.5 301.6 23.1 301.6 24.6C301.6 26.1 300.1 26.8 298.3 26.8C296.9 26.8 295.8 26.4 294.9 25.6C294.8 25.5 294.8 25.5 294.9 25.4L295.4 24.7C295.5 24.6 295.6 24.6 295.7 24.7C296.5 25.4 297.3 25.7 298.4 25.7C299.8 25.7 300.5 25.2 300.5 24.6C300.5 23.9 299.7 23.6 298.3 23.5C296.7 23.3 295.3 22.9 295.3 21.3C295.3 20.1 296.5 19.3 298.3 19.3C299.3 19.3 300.5 19.6 301.3 20.4ZM303 29C302.9 29 302.8 28.9 302.8 28.8V19.6C302.8 19.5 302.9 19.4 303 19.4H303.7C303.8 19.4 303.9 19.5 303.9 19.6L304 20.1H304.1C304.7 19.5 305.5 19.3 306.4 19.3C308.5 19.3 310.1 20.8 310.1 23.1C310.1 25.4 308.5 26.9 306.4 26.9C305.5 26.9 304.7 26.6 304 26V28.8C304 28.9 303.9 29 303.8 29H303ZM304 24.6C304.6 25.4 305.4 25.7 306.4 25.7C307.9 25.7 308.9 24.6 308.9 23.1C308.9 21.5 307.9 20.4 306.4 20.4C305.5 20.4 304.6 20.7 304 21.5V24.6ZM316.6 25.7C315.9 26.4 314.9 26.8 313.8 26.8C312.1 26.8 311.1 25.8 311.1 24.5C311.1 23.2 312.2 22.3 313.5 22.2L316.4 21.8V21.6C316.4 20.8 315.7 20.4 314.7 20.4C313.8 20.4 313 20.6 312.2 21.2C312.1 21.3 312 21.3 311.9 21.2L311.4 20.6C311.3 20.5 311.3 20.4 311.4 20.3C312.3 19.6 313.3 19.3 314.6 19.3C316.2 19.3 317.6 20.1 317.6 21.7V24.2C317.6 24.8 317.7 25.3 317.9 25.9L318 26.3C318.1 26.4 318 26.5 317.9 26.5L317.2 26.8C317.1 26.8 317 26.8 317 26.7L316.6 25.7ZM316.4 22.9L313.6 23.3C312.9 23.4 312.3 23.8 312.3 24.4C312.3 25.2 313 25.6 313.9 25.6C314.9 25.6 315.9 25.2 316.4 24.4V22.9ZM326 20.9C326.1 21 326.1 21.1 326 21.1L325.4 21.6C325.3 21.7 325.2 21.6 325.2 21.6C324.6 20.8 323.9 20.5 323 20.5C321.5 20.5 320.4 21.6 320.4 23.1C320.4 24.6 321.5 25.8 323 25.8C323.9 25.8 324.7 25.4 325.2 24.6C325.3 24.5 325.3 24.5 325.4 24.6L326 25.1C326.1 25.2 326.1 25.2 326 25.3C325.3 26.3 324.1 26.9 322.9 26.9C320.7 26.9 319.1 25.3 319.1 23.1C319.1 20.9 320.8 19.3 322.9 19.3C324.2 19.3 325.3 19.8 326 20.9ZM330.8 19.3C333 19.3 334.5 20.9 334.5 23.1V23.5C334.5 23.6 334.4 23.7 334.3 23.7H328.2C328.4 24.9 329.3 25.8 330.8 25.8C331.7 25.8 332.4 25.5 333.2 24.9C333.3 24.8 333.3 24.8 333.4 24.9L333.9 25.5C334 25.6 334 25.7 333.9 25.7C333 26.5 331.9 26.8 330.8 26.8C328.5 26.8 326.9 25.2 326.9 23C327 20.9 328.6 19.3 330.8 19.3ZM328.2 22.5H333.2C333.1 21.3 332 20.4 330.8 20.4C329.5 20.4 328.4 21.3 328.2 22.5Z" fill="black"/>
</svg>
